# xmcd CD database file
#
# Track frame offsets:
#	150
#	15545
#	35840
#	59552
#	74250
#	90697
#	111680
#	128682
#	141810
#	154730
#	168575
#	189865
#	204630
#	219222
#	236527
#
# Disc length: 3394 seconds
#
# Revision: 0
# Processed by: cddbd v1.4PL0 Copyright (c) Steve Scherf et al.
# Submitted via: CDex 1.40Release
#
DISCID=d80d400f
DTITLE=Napoleon Washington - Hotel Bravo
DYEAR=2002
DGENRE=Blues
TTITLE0=Same Steel
TTITLE1=Dance On My Grave
TTITLE2=A Hundred Days
TTITLE3=Green Missing
TTITLE4=Big Mama's Door
TTITLE5=River Of Tears
TTITLE6=Got Yesterday Behind
TTITLE7=Keep My Baby Satisfied
TTITLE8=Water Me
TTITLE9=Sweet Smile Of The Crocodile
TTITLE10=That I Know
TTITLE11=Left and Right
TTITLE12=Greyhound Meatballs
TTITLE13=Other Side Of The World
TTITLE14=Last Romance
EXTD=YEAR: 2002 ID3G: 0
EXTT0=
EXTT1=
EXTT2=
EXTT3=
EXTT4=
EXTT5=
EXTT6=
EXTT7=
EXTT8=
EXTT9=
EXTT10=
EXTT11=
EXTT12=
EXTT13=
EXTT14=
PLAYORDER=
